LG_Sit_Stand_Walk02																		
version=1																		
nRows=90																		
nColumns=19																		
inDegrees=yes																		
endheader																		
time	ground_force2_vx	ground_force2_vy	ground_force2_vz	ground_force2_px	ground_force2_py	ground_force2_pz	ground_torque2_x	ground_torque2_y	ground_torque2_z	ground_force1_vx	ground_force1_vy	ground_force1_vz	ground_force1_px	ground_force1_py	ground_force1_pz	ground_torque1_x	ground_torque1_y	ground_torque1_z
5.725	0	0	0	0.2	0	-0.3	0	0	0	41.011349	644.640442	41.049053	-0.141795	0	0.275746	-4.00E-06	-1.266105	-2.00E-06
5.726	0	0	0	0.2	0	-0.3	0	0	0	41.011349	644.640442	41.362133	-0.142047	0	0.275746	-6.00E-06	-1.279471	-2.00E-06
5.727	0	0	0	0.2	0	-0.3	0	0	0	40.541359	641.723572	41.362133	-0.142228	0	0.275878	-1.60E-05	-1.320984	-4.00E-06
5.728	0	0	0	0.2	0	-0.3	0	0	0	40.541359	641.723572	41.832233	-0.142228	0	0.275878	-1.60E-05	-1.37476	1.00E-06
5.729	0	0	0	0.2	0	-0.3	0	0	0	41.63488	643.754089	41.832233	-0.141834	0	0.275994	-1.50E-05	-1.37476	-3.00E-06
5.73	0	0	0	0.2	0	-0.3	0	0	0	41.63488	645.478516	41.753944	-0.141787	0	0.277564	-9.00E-06	-1.37476	-1.00E-06
5.731	0	0	0	0.2	0	-0.3	0	0	0	41.55703	645.639771	41.753864	-0.141787	0	0.277564	-9.00E-06	-1.382889	-3.00E-06
5.732	0	0	0	0.2	0	-0.3	0	0	0	41.478458	645.639771	41.597324	-0.141787	0	0.277521	-1.00E-05	-1.346359	-8.00E-06
5.733	0	0	0	0.2	0	-0.3	0	0	0	41.55703	645.143372	41.753864	-0.141796	0	0.277513	-1.00E-05	-1.346359	-8.00E-06
5.734	0	0	0	0.2	0	-0.3	0	0	0	41.558472	645.143372	41.832195	-0.142022	0	0.277521	-1.30E-05	-1.346359	-6.00E-06
5.735	0	0	0	0.2	0	-0.3	0	0	0	42.339146	645.785217	41.910606	-0.142022	0	0.278801	-5.00E-06	-1.371731	-4.00E-06
5.736	0	0	0	0.2	0	-0.3	0	0	0	42.339146	645.785217	41.832195	-0.141531	0	0.278801	0.00E+00	-1.430548	-4.00E-06
5.737	0	0	0	0.2	0	-0.3	0	0	0	41.63488	645.785217	41.832153	-0.141531	0	0.278282	0	-1.430548	-9.00E-06
5.738	0	0	0	0.2	0	-0.3	0	0	0	41.556309	645.952209	41.675289	-0.141657	0	0.278282	-7.00E-06	-1.424723	-9.00E-06
5.739	0	0	0	0.2	0	-0.3	0	0	0	41.556309	645.952209	41.675289	-0.141657	0	0.278346	-1.10E-05	-1.380405	-4.00E-06
5.74	0	0	0	0.2	0	-0.3	0	0	0	41.870598	645.952209	41.910564	-0.14168	0	0.279098	-1.60E-05	-1.357345	-4.00E-06
5.741	0	0	0	0.2	0	-0.3	0	0	0	42.105595	648.023499	42.302299	-0.141544	0	0.279244	-1.80E-05	-1.357345	-4.00E-06
5.742	0	0	0	0.2	0	-0.3	0	0	0	42.182003	648.023499	42.458839	-0.14131	0	0.279865	-1.60E-05	-1.438024	-4.00E-06
5.743	0	0	0	0.2	0	-0.3	0	0	0	42.182003	644.907654	42.53709	-0.14131	0	0.279865	-4.00E-06	-1.539707	-1.00E-05
5.744	0	0	0	0.2	0	-0.3	0	0	0	42.337704	644.907654	42.53709	-0.141481	0	0.279865	-4.00E-06	-1.539707	0.00E+00
5.745	0	0	0	0.2	0	-0.3	0	0	0	41.946285	646.955811	42.53709	-0.141481	0	0.280368	-1.40E-05	-1.470236	-7.00E-06
5.746	0	0	0	0.2	0	-0.3	0	0	0	41.946285	647.297974	42.61562	-0.141481	0	0.280539	-1.80E-05	-1.470236	-2.00E-06
5.747	0	0	0	0.2	0	-0.3	0	0	0	41.946285	648.134583	42.772243	-0.141441	0	0.280539	-1.80E-05	-1.470236	-2.00E-06
5.748	0	0	0	0.2	0	-0.3	0	0	0	42.412666	648.134583	43.085522	-0.141394	0	0.281929	-1.70E-05	-1.564626	-2.00E-06
5.749	0	0	0	0.2	0	-0.3	0	0	0	42.412666	646.41156	43.242306	-0.141353	0	0.281929	-1.30E-05	-1.475519	-2.00E-06
5.75	0	0	0	0.2	0	-0.3	0	0	0	42.412666	646.243347	43.242306	-0.141394	0	0.28193	-1.00E-05	-1.475519	-1.10E-05
5.751	0	0	0	0.2	0	-0.3	0	0	0	42.414112	646.243347	43.634197	-0.141638	0	0.28193	-7.00E-06	-1.475519	-1.10E-05
5.752	0	0	0	0.2	0	-0.3	0	0	0	42.647663	649.849915	43.712452	-0.141638	0	0.28234	-7.00E-06	-1.492322	-1.10E-05
5.753	0	0	0	0.2	0	-0.3	0	0	0	42.724072	649.849915	43.712452	-0.141475	0	0.282612	-7.00E-06	-1.543091	-2.00E-06
5.754	0	0	0	0.2	0	-0.3	0	0	0	43.03764	650.001831	43.633919	-0.141475	0	0.282694	-7.00E-06	-1.557553	-7.00E-06
5.755	0	0	0	0.2	0	-0.3	0	0	0	43.346878	649.486145	43.633919	-0.141505	0	0.283084	-8.00E-06	-1.655153	-2.00E-06
5.756	0	0	0	0.2	0	-0.3	0	0	0	43.346878	650.160767	43.712406	-0.141505	0	0.283303	-3.00E-06	-1.655153	-2.00E-06
5.757	0	0	0	0.2	0	-0.3	0	0	0	43.11549	650.160767	43.712406	-0.141438	0	0.283303	-8.00E-06	-1.597495	-2.00E-06
5.758	0	0	0	0.2	0	-0.3	0	0	0	43.11549	654.455811	43.86895	-0.141438	0	0.283662	-1.70E-05	-1.597495	-2.00E-06
5.759	0	0	0	0.2	0	-0.3	0	0	0	43.11549	654.455811	43.86895	-0.141471	0	0.283805	-1.70E-05	-1.653125	-9.00E-06
5.76	0	0	0	0.2	0	-0.3	0	0	0	43.187569	653.059082	44.260761	-0.141471	0	0.28431	-1.00E-05	-1.678223	-8.00E-06
5.761	0	0	0	0.2	0	-0.3	0	0	0	43.187569	652.705383	44.338974	-0.141471	0	0.284523	-1.00E-05	-1.694384	-8.00E-06
5.762	0	0	0	0.2	0	-0.3	0	0	0	43.191898	652.705383	44.573925	-0.141531	0	0.284397	-1.00E-05	-1.694384	-8.00E-06
5.763	0	0	0	0.2	0	-0.3	0	0	0	43.271915	652.705383	44.965656	-0.141612	0	0.285055	-8.00E-06	-1.60775	-7.00E-06
5.764	0	0	0	0.2	0	-0.3	0	0	0	43.349766	655.973206	44.965816	-0.141612	0	0.285231	-8.00E-06	-1.60775	-6.00E-06
5.765	0	0	0	0.2	0	-0.3	0	0	0	43.737576	656.812195	45.200729	-0.141357	0	0.285529	-8.00E-06	-1.721396	-6.00E-06
5.766	0	0	0	0.2	0	-0.3	0	0	0	43.737576	656.812195	45.357433	-0.141357	0	0.286094	-1.00E-05	-1.768273	-7.00E-06
5.767	0	0	0	0.2	0	-0.3	0	0	0	43.737576	656.810181	45.749126	-0.141287	0	0.286094	-6.00E-06	-1.771944	-7.00E-06
5.768	0	0	0	0.2	0	-0.3	0	0	0	44.519695	656.107056	46.454178	-0.141322	0	0.286094	-6.00E-06	-1.79249	1.00E-06
5.769	0	0	0	0.2	0	-0.3	0	0	0	44.519695	656.107056	47.002697	-0.141322	0	0.286328	-6.00E-06	-1.804459	1.00E-06
5.77	0	0	0	0.2	0	-0.3	0	0	0	44.519695	659.730896	47.159275	-0.14171	0	0.286328	-1.10E-05	-1.804459	-4.00E-06
5.771	0	0	0	0.2	0	-0.3	0	0	0	45.222519	660.205688	47.39439	-0.14171	0	0.287537	-1.10E-05	-1.780004	-6.00E-06
5.772	0	0	0	0.2	0	-0.3	0	0	0	45.222519	660.382385	47.551048	-0.141328	0	0.287537	-4.00E-06	-1.780004	-9.00E-06
5.773	0	0	0	0.2	0	-0.3	0	0	0	44.988964	660.382385	47.551048	-0.141328	0	0.287002	-4.00E-06	-1.848457	-6.00E-06
5.774	0	0	0	0.2	0	-0.3	0	0	0	44.988964	662.276733	47.707508	-0.14135	0	0.287002	-8.00E-06	-1.848457	-8.00E-06
5.775	0	0	0	0.2	0	-0.3	0	0	0	45.379665	662.276733	48.804619	-0.141803	0	0.287047	-1.40E-05	-1.848457	-8.00E-06
5.776	0	0	0	0.2	0	-0.3	0	0	0	45.691067	662.276733	49.19619	-0.141747	0	0.287288	-8.00E-06	-1.936159	-8.00E-06
5.777	0	0	0	0.2	0	-0.3	0	0	0	46.081764	667.26062	49.274681	-0.141747	0	0.288141	-1.40E-05	-1.936159	-5.00E-06
5.778	0	0	0	0.2	0	-0.3	0	0	0	46.081764	667.26062	49.587841	-0.14118	0	0.288141	-1.10E-05	-1.936159	-2.00E-06
5.779	0	0	0	0.2	0	-0.3	0	0	0	46.000305	666.053711	49.587841	-0.14118	0	0.287794	-2.00E-05	-1.927948	-2.00E-06
5.78	0	0	0	0.2	0	-0.3	0	0	0	45.923897	666.053711	50.214848	-0.141156	0	0.287794	-1.60E-05	-1.982361	0.00E+00
5.781	0	0	0	0.2	0	-0.3	0	0	0	45.923897	670.0047	51.389969	-0.141289	0	0.288437	-1.60E-05	-1.927948	0
5.782	0	0	0	0.2	0	-0.3	0	0	0	46.390285	670.333679	51.859989	-0.141272	0	0.289195	-1.10E-05	-1.982361	-9.00E-06
5.783	0	0	0	0.2	0	-0.3	0	0	0	46.468853	672.401123	52.095066	-0.141272	0	0.289259	-7.00E-06	-2.090959	-9.00E-06
5.784	0	0	0	0.2	0	-0.3	0	0	0	46.391003	672.401123	52.486755	-0.141048	0	0.289447	-7.00E-06	-2.100957	-5.00E-06
5.785	0	0	0	0.2	0	-0.3	0	0	0	46.391003	673.427917	53.505253	-0.141048	0	0.289447	-6.00E-06	-2.100957	-4.00E-06
5.786	0	0	0	0.2	0	-0.3	0	0	0	45.768196	673.6073	53.740246	-0.141165	0	0.289447	-6.00E-06	-2.052577	-4.00E-06
5.787	0	0	0	0.2	0	-0.3	0	0	0	45.768196	675.313721	55.542294	-0.141179	0	0.290229	-8.00E-06	-1.944988	2.00E-06
5.788	0	0	0	0.2	0	-0.3	0	0	0	46.778095	676.354736	56.404171	-0.141179	0	0.290928	-8.00E-06	-1.944988	-2.00E-06
5.789	0	0	0	0.2	0	-0.3	0	0	0	46.780258	676.689514	56.639042	-0.141362	0	0.290983	-8.00E-06	-2.175772	3.00E-06
5.79	0	0	0	0.2	0	-0.3	0	0	0	46.780258	678.414551	56.874233	-0.141362	0	0.290983	-1.20E-05	-2.190417	-2.00E-06
5.791	0	0	0	0.2	0	-0.3	0	0	0	46.780258	678.414551	57.735828	-0.141546	0	0.290983	-1.30E-05	-2.175772	-5.00E-06
5.792	0	0	0	0.2	0	-0.3	0	0	0	46.704571	679.794678	58.12764	-0.141561	0	0.291116	-1.40E-05	-2.16809	-5.00E-06
5.793	0	0	0	0.2	0	-0.3	0	0	0	46.704571	680.310669	58.754364	-0.141732	0	0.291322	-1.30E-05	-2.074513	-5.00E-06
5.794	0	0	0	0.2	0	-0.3	0	0	0	47.954517	686.334167	59.302799	-0.141918	0	0.29219	-6.00E-06	-2.074513	-7.00E-06
5.795	0	0	0	0.2	0	-0.3	0	0	0	48.188068	686.334167	59.616123	-0.14194	0	0.293157	-1.00E-06	-2.13374	-7.00E-06
5.796	0	0	0	0.2	0	-0.3	0	0	0	48.73447	686.334167	59.616123	-0.14194	0	0.29438	-6.00E-06	-2.13374	0.00E+00
5.797	0	0	0	0.2	0	-0.3	0	0	0	49.669403	688.260986	59.851154	-0.14317	0	0.294855	-1.10E-05	-2.12252	0
5.798	0	0	0	0.2	0	-0.3	0	0	0	50.763645	688.260986	60.08683	-0.143171	0	0.29544	-1.20E-05	-1.90178	-4.00E-06
5.799	0	0	0	0.2	0	-0.3	0	0	0	51.777874	686.73822	60.243774	-0.143514	0	0.295892	-1.10E-05	-1.90178	-4.00E-06
5.8	0	0	0	0.2	0	-0.3	0	0	0	53.492039	685.718994	61.105854	-0.143514	0	0.296202	-8.00E-06	-2.053926	-6.00E-06
5.801	0	0	0	0.2	0	-0.3	0	0	0	53.646297	683.461731	61.105854	-0.143415	0	0.296202	-8.00E-06	-2.093899	-6.00E-06
5.802	0	0	0	0.2	0	-0.3	0	0	0	53.646297	680.888184	61.027203	-0.143415	0	0.295831	-1.10E-05	-2.132929	-6.00E-06
5.803	0	0	0	0.2	0	-0.3	0	0	0	53.646297	680.888184	61.027203	-0.143224	0	0.295831	-1.30E-05	-2.207914	-5.00E-06
5.804	0	0	0	0.2	0	-0.3	0	0	0	54.209293	688.423035	61.104362	-0.142954	0	0.295522	-1.10E-05	-2.207914	-1.00E-05
5.805	0	0	0	0.2	0	-0.3	0	0	0	54.279926	692.715759	61.104362	-0.142455	0	0.295462	-5.00E-06	-2.300865	-1.00E-05
5.806	0	0	0	0.2	0	-0.3	0	0	0	54.601437	697.171692	61.104362	-0.142257	0	0.295462	-5.00E-06	-2.300865	-1.00E-05
5.807	0	0	0	0.2	0	-0.3	0	0	0	55.382107	700.586975	61.730724	-0.141817	0	0.295462	-1.30E-05	-2.320239	-5.00E-06
5.808	0	0	0	0.2	0	-0.3	0	0	0	55.382107	700.586975	61.730724	-0.141767	0	0.295145	-1.30E-05	-2.401725	-5.00E-06
5.809	0	0	0	0.2	0	-0.3	0	0	0	55.382107	694.909058	61.730724	-0.141817	0	0.295145	-1.20E-05	-2.401725	-3.00E-06
5.81	0	0	0	0.2	0	-0.3	0	0	0	55.53709	694.909058	61.888111	-0.141767	0	0.29512	-5.00E-06	-2.331489	-3.00E-06
5.811	0	0	0	0.2	0	-0.3	0	0	0	55.848492	694.57196	62.201595	-0.141855	0	0.29523	-5.00E-06	-2.331489	-3.00E-06
5.812	0	0	0	0.2	0	-0.3	0	0	0	56.076275	694.749634	62.515316	-0.141855	0	0.295459	-5.00E-06	-2.359803	-7.00E-06
5.813	0	0	0	0.2	0	-0.3	0	0	0	56.467693	694.749634	63.533855	-0.141855	0	0.296491	-5.00E-06	-2.430412	-7.00E-06
5.814	0	0	0	0.2	0	-0.3	0	0	0	56.467693	697.84668	64.238754	-0.142012	0	0.29664	-1.70E-05	-2.430412	3.00E-06
